<svg xmlns="http://www.w3.org/2000/svg" width="1440" height="720" viewBox="0 0 1440 720" role="img" aria-labelledby="title desc">
  <title id="title">Evidence To PPT Workflow hero diagram</title>
  <desc id="desc">A dashboard-style workflow showing how a topic becomes an evidence-reviewed PPT input and then an editable PPTX.</desc>
  <defs>
    <filter id="shadow" x="-20%" y="-20%" width="140%" height="140%">
      <feDropShadow dx="0" dy="14" stdDeviation="18" flood-color="#0f172a" flood-opacity="0.13"/>
    </filter>
    <marker id="arrow" markerWidth="12" markerHeight="12" refX="9" refY="6" orient="auto">
      <path d="M2,2 L10,6 L2,10 Z" fill="#2563eb"/>
    </marker>
  </defs>
  <rect width="1440" height="720" rx="0" fill="#f8fafc"/>
  <g transform="translate(72 58)">
    <text x="0" y="0" font-family="Arial, Helvetica, sans-serif" font-size="42" font-weight="800" fill="#0f172a">Evidence-first PPT workflow</text>
    <text x="0" y="38" font-family="Arial, Helvetica, sans-serif" font-size="18" fill="#475569">Start with a topic. Research with citations. Audit every claim. Hand clean material to ppt-master.</text>
  </g>
  <g transform="translate(72 132)" font-family="Arial, Helvetica, sans-serif">
    <rect x="0" y="0" width="1296" height="482" rx="28" fill="#ffffff" filter="url(#shadow)"/>
    <rect x="30" y="30" width="1236" height="92" rx="18" fill="#0f172a"/>
    <text x="58" y="70" font-size="21" font-weight="700" fill="#ffffff">Topic / Idea</text>
    <text x="58" y="99" font-size="14" fill="#cbd5e1">A rough deck direction.</text>
    <text x="318" y="70" font-size="21" font-weight="700" fill="#ffffff">Evidence Engine</text>
    <text x="318" y="99" font-size="14" fill="#cbd5e1">Research with source links.</text>
    <text x="650" y="70" font-size="21" font-weight="700" fill="#ffffff">Codex Audit Gate</text>
    <text x="650" y="99" font-size="14" fill="#cbd5e1">Source table and claims matrix.</text>
    <text x="1032" y="70" font-size="21" font-weight="700" fill="#ffffff">Editable PPTX</text>
    <text x="1032" y="99" font-size="14" fill="#cbd5e1">ppt-master gets approved inputs.</text>

    <g transform="translate(44 170)">
      <rect width="190" height="160" rx="16" fill="#eff6ff" stroke="#bfdbfe"/>
      <text x="24" y="40" font-size="18" font-weight="700" fill="#1e3a8a">01 Brief</text>
      <text x="24" y="70" font-size="14" fill="#334155">Audience</text>
      <text x="24" y="94" font-size="14" fill="#334155">Scope</text>
      <text x="24" y="118" font-size="14" fill="#334155">Source policy</text>
      <text x="24" y="142" font-size="14" fill="#334155">Deck length</text>
    </g>
    <line x1="254" y1="250" x2="336" y2="250" stroke="#2563eb" stroke-width="3" marker-end="url(#arrow)"/>

    <g transform="translate(356 152)">
      <rect width="246" height="196" rx="18" fill="#ecfeff" stroke="#67e8f9"/>
      <text x="24" y="42" font-size="20" font-weight="700" fill="#155e75">02 Research Pack</text>
      <rect x="24" y="68" width="198" height="34" rx="8" fill="#ffffff"/>
      <text x="40" y="91" font-size="14" fill="#334155">Facts with URLs</text>
      <rect x="24" y="112" width="198" height="34" rx="8" fill="#ffffff"/>
      <text x="40" y="135" font-size="14" fill="#334155">Dates and caveats</text>
      <rect x="24" y="156" width="198" height="24" rx="8" fill="#cffafe"/>
      <text x="40" y="174" font-size="12" fill="#155e75">Generated by GPT Researcher</text>
    </g>
    <line x1="622" y1="250" x2="704" y2="250" stroke="#2563eb" stroke-width="3" marker-end="url(#arrow)"/>

    <g transform="translate(724 146)">
      <rect width="276" height="208" rx="20" fill="#f8fafc" stroke="#cbd5e1"/>
      <text x="24" y="44" font-size="20" font-weight="700" fill="#0f172a">03 Audit Pack</text>
      <g transform="translate(24 70)">
        <rect width="228" height="34" rx="8" fill="#dbeafe"/>
        <text x="14" y="23" font-size="14" font-weight="700" fill="#1d4ed8">source_table.csv</text>
      </g>
      <g transform="translate(24 114)">
        <rect width="228" height="34" rx="8" fill="#ede9fe"/>
        <text x="14" y="23" font-size="14" font-weight="700" fill="#6d28d9">claims_matrix.md</text>
      </g>
      <g transform="translate(24 158)">
        <rect width="228" height="34" rx="8" fill="#dcfce7"/>
        <text x="14" y="23" font-size="14" font-weight="700" fill="#166534">audit_report.md</text>
      </g>
    </g>
    <line x1="1020" y1="250" x2="1102" y2="250" stroke="#2563eb" stroke-width="3" marker-end="url(#arrow)"/>

    <g transform="translate(1122 160)">
      <rect width="126" height="176" rx="18" fill="#fff7ed" stroke="#fdba74"/>
      <rect x="18" y="22" width="90" height="118" rx="10" fill="#ffffff" stroke="#fed7aa"/>
      <line x1="34" y1="52" x2="92" y2="52" stroke="#fb923c" stroke-width="5" stroke-linecap="round"/>
      <line x1="34" y1="78" x2="92" y2="78" stroke="#2563eb" stroke-width="5" stroke-linecap="round"/>
      <line x1="34" y1="104" x2="72" y2="104" stroke="#22c55e" stroke-width="5" stroke-linecap="round"/>
      <text x="20" y="166" font-size="13" font-weight="700" fill="#9a3412">editable PPTX</text>
    </g>

    <g transform="translate(44 388)">
      <rect width="1208" height="54" rx="14" fill="#f8fafc" stroke="#e2e8f0"/>
      <text x="24" y="34" font-size="15" fill="#334155">Hard rule: unsupported claims stop at the audit gate. Final slides use only accepted or clearly caveated material.</text>
      <text x="978" y="34" font-size="15" font-weight="700" fill="#2563eb">No API keys in repo</text>
    </g>
  </g>
</svg>
