<svg xmlns="http://www.w3.org/2000/svg" width="1320" height="280" viewBox="0 0 1320 280" role="img" aria-labelledby="title desc">
  <title id="title">Evidence To PPT workflow overview</title>
  <desc id="desc">Topic goes to GPT Researcher, research pack, Codex audit, source table, claims matrix, PPT outline, ppt-master, and final PPT.</desc>
  <defs>
    <marker id="arrow" viewBox="0 0 10 10" refX="9" refY="5" markerWidth="8" markerHeight="8" orient="auto-start-reverse">
      <path d="M 0 0 L 10 5 L 0 10 z" fill="#2563eb"/>
    </marker>
    <style>
      .bg{fill:#f8fafc}.box{fill:#ffffff;stroke:#2563eb;stroke-width:2;rx:14}.gate{fill:#eff6ff;stroke:#1d4ed8;stroke-width:2;rx:14}.text{font-family:Inter,Arial,sans-serif;font-size:18px;fill:#0f172a;font-weight:700}.sub{font-family:Inter,Arial,sans-serif;font-size:13px;fill:#475569}.line{stroke:#2563eb;stroke-width:3;marker-end:url(#arrow)}
    </style>
  </defs>
  <rect class="bg" width="1320" height="280"/>
  <text x="40" y="42" class="text" style="font-size:26px">Evidence-first PPT workflow</text>
  <text x="40" y="68" class="sub">Research first, audit claims, then generate slides.</text>
  <g transform="translate(35 110)">
    <rect class="box" width="125" height="78"/><text class="text" x="18" y="35">Topic</text><text class="sub" x="18" y="57">idea / brief</text>
  </g>
  <line class="line" x1="170" y1="149" x2="235" y2="149"/>
  <g transform="translate(245 110)">
    <rect class="box" width="150" height="78"/><text class="text" x="20" y="35">GPT Researcher</text><text class="sub" x="20" y="57">web/local research</text>
  </g>
  <line class="line" x1="405" y1="149" x2="470" y2="149"/>
  <g transform="translate(480 110)">
    <rect class="box" width="145" height="78"/><text class="text" x="20" y="35">Research Pack</text><text class="sub" x="20" y="57">sources + notes</text>
  </g>
  <line class="line" x1="635" y1="149" x2="700" y2="149"/>
  <g transform="translate(710 110)">
    <rect class="gate" width="145" height="78"/><text class="text" x="18" y="35">Codex Audit</text><text class="sub" x="18" y="57">source review</text>
  </g>
  <line class="line" x1="865" y1="149" x2="930" y2="149"/>
  <g transform="translate(940 70)">
    <rect class="box" width="150" height="62"/><text class="text" x="20" y="37">Source Table</text>
  </g>
  <g transform="translate(940 160)">
    <rect class="box" width="150" height="62"/><text class="text" x="20" y="37">Claims Matrix</text>
  </g>
  <line class="line" x1="1095" y1="190" x2="1140" y2="190"/>
  <g transform="translate(1150 160)">
    <rect class="box" width="130" height="62"/><text class="text" x="17" y="37">Final PPT</text>
  </g>
  <path d="M1015 132 C1015 148 1045 150 1085 150 C1125 150 1138 170 1140 188" fill="none" stroke="#2563eb" stroke-width="3" marker-end="url(#arrow)"/>
  <text x="1110" y="123" class="sub">PPT outline + ppt-master</text>
</svg>
